<?xml version="1.0" encoding="UTF-8"?><svg id="Layer_2" xmlns="http://www.w3.org/2000/svg" viewBox="0 0 166.68 292.24"><g id="Layer_1-2"><path d="M17.49,0c2.65,.01,6.49,1.68,9.76,4.85,18.38,17.83,36.78,35.65,55.18,53.46,26.26,25.43,52.51,50.87,78.79,76.28,3.17,3.07,5.28,6.61,5.45,11.05,.18,4.87-2,8.75-5.43,12.06-11.75,11.34-23.48,22.71-35.22,34.06-32.98,31.91-66.02,63.75-98.89,95.77-7.84,7.64-21.55,5.86-25.9-4.44-2.55-6.03-1.09-12.84,3.92-17.69,13.29-12.87,26.59-25.72,39.89-38.58,27.36-26.45,54.71-52.91,82.1-79.32,1.24-1.2,.97-1.71-.11-2.74C86.43,105.55,45.86,66.31,5.28,27.08,.81,22.76-.94,17.56,.5,11.48,2.13,4.6,8.29,0,17.49,0h0Z" style="fill:#c5c5c7;"/></g></svg>